<mxfile host="app.diagrams.net" agent="Mozilla/5.0 (Windows NT 10.0; Win64; x64; rv:141.0) Gecko/20100101 Firefox/141.0" version="28.0.7">
  <diagram name="Page-1" id="4QEaVdgZd0XyPWaUjcYC">
    <mxGraphModel dx="1636" dy="582" grid="1" gridSize="10" guides="1" tooltips="1" connect="1" arrows="1" fold="1" page="1" pageScale="1" pageWidth="850" pageHeight="1100" math="0" shadow="0">
      <root>
        <mxCell id="0" />
        <mxCell id="1" parent="0" />
        <mxCell id="ZqF51eGxgcXinOxhbdrN-3" value="name" style="ellipse;whiteSpace=wrap;html=1;align=center;" vertex="1" parent="1">
          <mxGeometry x="150" y="117.5" width="100" height="40" as="geometry" />
        </mxCell>
        <mxCell id="ZqF51eGxgcXinOxhbdrN-4" value="Equipment" style="whiteSpace=wrap;html=1;align=center;fontFamily=Lucida Console;fontSize=20;" vertex="1" parent="1">
          <mxGeometry x="90" y="230" width="150" height="70" as="geometry" />
        </mxCell>
        <mxCell id="ZqF51eGxgcXinOxhbdrN-5" value="" style="line;strokeWidth=1;rotatable=0;dashed=0;labelPosition=right;align=left;verticalAlign=middle;spacingTop=0;spacingLeft=6;points=[];portConstraint=eastwest;" vertex="1" parent="1">
          <mxGeometry x="240" y="267.5" width="60" height="10" as="geometry" />
        </mxCell>
        <mxCell id="ZqF51eGxgcXinOxhbdrN-6" value="department_id" style="ellipse;whiteSpace=wrap;html=1;align=center;" vertex="1" parent="1">
          <mxGeometry x="140" y="362.5" width="100" height="35" as="geometry" />
        </mxCell>
        <mxCell id="ZqF51eGxgcXinOxhbdrN-7" value="" style="line;strokeWidth=1;rotatable=0;dashed=0;labelPosition=right;align=left;verticalAlign=middle;spacingTop=0;spacingLeft=6;points=[];portConstraint=eastwest;direction=south;" vertex="1" parent="1">
          <mxGeometry x="165" y="302.5" width="10" height="57.5" as="geometry" />
        </mxCell>
        <mxCell id="ZqF51eGxgcXinOxhbdrN-8" value="age" style="ellipse;whiteSpace=wrap;html=1;align=center;" vertex="1" parent="1">
          <mxGeometry x="-70" y="255" width="100" height="35" as="geometry" />
        </mxCell>
        <mxCell id="ZqF51eGxgcXinOxhbdrN-9" value="" style="line;strokeWidth=1;rotatable=0;dashed=0;labelPosition=right;align=left;verticalAlign=middle;spacingTop=0;spacingLeft=6;points=[];portConstraint=eastwest;" vertex="1" parent="1">
          <mxGeometry x="30" y="267.5" width="60" height="10" as="geometry" />
        </mxCell>
        <mxCell id="ZqF51eGxgcXinOxhbdrN-11" value="" style="endArrow=none;html=1;rounded=0;" edge="1" parent="1">
          <mxGeometry width="50" height="50" relative="1" as="geometry">
            <mxPoint x="240" y="232.5" as="sourcePoint" />
            <mxPoint x="290" y="182.5" as="targetPoint" />
          </mxGeometry>
        </mxCell>
        <mxCell id="ZqF51eGxgcXinOxhbdrN-12" value="" style="endArrow=none;html=1;rounded=0;" edge="1" parent="1">
          <mxGeometry width="50" height="50" relative="1" as="geometry">
            <mxPoint x="40" y="352.5" as="sourcePoint" />
            <mxPoint x="90" y="302.5" as="targetPoint" />
          </mxGeometry>
        </mxCell>
        <mxCell id="ZqF51eGxgcXinOxhbdrN-13" value="staff_id" style="ellipse;whiteSpace=wrap;html=1;align=center;" vertex="1" parent="1">
          <mxGeometry x="-20" y="352.5" width="100" height="35" as="geometry" />
        </mxCell>
        <mxCell id="ZqF51eGxgcXinOxhbdrN-14" value="type" style="ellipse;whiteSpace=wrap;html=1;align=center;" vertex="1" parent="1">
          <mxGeometry x="250" y="145" width="100" height="35" as="geometry" />
        </mxCell>
        <mxCell id="ZqF51eGxgcXinOxhbdrN-15" value="" style="endArrow=none;html=1;rounded=0;" edge="1" parent="1">
          <mxGeometry width="50" height="50" relative="1" as="geometry">
            <mxPoint x="290" y="352.5" as="sourcePoint" />
            <mxPoint x="240" y="302.5" as="targetPoint" />
          </mxGeometry>
        </mxCell>
        <mxCell id="ZqF51eGxgcXinOxhbdrN-16" value="status" style="ellipse;whiteSpace=wrap;html=1;align=center;" vertex="1" parent="1">
          <mxGeometry x="240" y="352.5" width="100" height="35" as="geometry" />
        </mxCell>
        <mxCell id="ZqF51eGxgcXinOxhbdrN-18" value="equipment id" style="ellipse;whiteSpace=wrap;html=1;align=center;fontStyle=4;" vertex="1" parent="1">
          <mxGeometry x="300" y="260" width="100" height="35" as="geometry" />
        </mxCell>
        <mxCell id="ZqF51eGxgcXinOxhbdrN-19" value="" style="endArrow=none;html=1;rounded=0;entryX=0.5;entryY=1;entryDx=0;entryDy=0;exitX=0.75;exitY=0;exitDx=0;exitDy=0;" edge="1" parent="1" source="ZqF51eGxgcXinOxhbdrN-4" target="ZqF51eGxgcXinOxhbdrN-3">
          <mxGeometry relative="1" as="geometry">
            <mxPoint x="50" y="187.5" as="sourcePoint" />
            <mxPoint x="210" y="187.5" as="targetPoint" />
          </mxGeometry>
        </mxCell>
        <mxCell id="ZqF51eGxgcXinOxhbdrN-42" value="&lt;font style=&quot;font-size: 20px;&quot;&gt;Supplies&lt;/font&gt;" style="rounded=0;whiteSpace=wrap;html=1;" vertex="1" parent="1">
          <mxGeometry x="590" y="260" width="210" height="60" as="geometry" />
        </mxCell>
        <mxCell id="ZqF51eGxgcXinOxhbdrN-43" value="" style="endArrow=none;html=1;rounded=0;entryX=0.25;entryY=1;entryDx=0;entryDy=0;exitX=0.659;exitY=0.048;exitDx=0;exitDy=0;exitPerimeter=0;" edge="1" parent="1" source="ZqF51eGxgcXinOxhbdrN-44">
          <mxGeometry width="50" height="50" relative="1" as="geometry">
            <mxPoint x="580" y="420" as="sourcePoint" />
            <mxPoint x="625" y="320" as="targetPoint" />
          </mxGeometry>
        </mxCell>
        <mxCell id="ZqF51eGxgcXinOxhbdrN-44" value="&lt;font face=&quot;Lucida Console&quot;&gt;name&lt;/font&gt;" style="ellipse;whiteSpace=wrap;html=1;align=center;" vertex="1" parent="1">
          <mxGeometry x="510" y="425" width="100" height="40" as="geometry" />
        </mxCell>
        <mxCell id="ZqF51eGxgcXinOxhbdrN-45" value="" style="endArrow=none;html=1;rounded=0;entryX=0.547;entryY=0.992;entryDx=0;entryDy=0;entryPerimeter=0;" edge="1" parent="1" target="ZqF51eGxgcXinOxhbdrN-42">
          <mxGeometry width="50" height="50" relative="1" as="geometry">
            <mxPoint x="690" y="430" as="sourcePoint" />
            <mxPoint x="680" y="320" as="targetPoint" />
          </mxGeometry>
        </mxCell>
        <mxCell id="ZqF51eGxgcXinOxhbdrN-46" value="" style="endArrow=none;html=1;rounded=0;entryX=0.889;entryY=1;entryDx=0;entryDy=0;entryPerimeter=0;exitX=0.279;exitY=-0.026;exitDx=0;exitDy=0;exitPerimeter=0;" edge="1" parent="1" target="ZqF51eGxgcXinOxhbdrN-42">
          <mxGeometry width="50" height="50" relative="1" as="geometry">
            <mxPoint x="807.9000000000001" y="428.96000000000004" as="sourcePoint" />
            <mxPoint x="720" y="540" as="targetPoint" />
          </mxGeometry>
        </mxCell>
        <mxCell id="ZqF51eGxgcXinOxhbdrN-47" value="&lt;u&gt;&lt;font face=&quot;Lucida Console&quot;&gt;supply_id&lt;/font&gt;&lt;/u&gt;" style="ellipse;whiteSpace=wrap;html=1;align=center;" vertex="1" parent="1">
          <mxGeometry x="400" y="430" width="100" height="40" as="geometry" />
        </mxCell>
        <mxCell id="ZqF51eGxgcXinOxhbdrN-48" value="" style="endArrow=none;html=1;rounded=0;entryX=0.07;entryY=1.012;entryDx=0;entryDy=0;entryPerimeter=0;exitX=1;exitY=0;exitDx=0;exitDy=0;" edge="1" parent="1" source="ZqF51eGxgcXinOxhbdrN-47" target="ZqF51eGxgcXinOxhbdrN-42">
          <mxGeometry width="50" height="50" relative="1" as="geometry">
            <mxPoint x="670" y="590" as="sourcePoint" />
            <mxPoint x="720" y="540" as="targetPoint" />
          </mxGeometry>
        </mxCell>
        <mxCell id="ZqF51eGxgcXinOxhbdrN-49" value="" style="endArrow=none;html=1;rounded=0;entryX=1;entryY=1;entryDx=0;entryDy=0;" edge="1" parent="1" target="ZqF51eGxgcXinOxhbdrN-42">
          <mxGeometry width="50" height="50" relative="1" as="geometry">
            <mxPoint x="955.6908779095629" y="432.5228533990321" as="sourcePoint" />
            <mxPoint x="770" y="470" as="targetPoint" />
          </mxGeometry>
        </mxCell>
        <mxCell id="ZqF51eGxgcXinOxhbdrN-50" value="&lt;font face=&quot;Lucida Console&quot;&gt;category&lt;/font&gt;" style="ellipse;whiteSpace=wrap;html=1;align=center;" vertex="1" parent="1">
          <mxGeometry x="640" y="430" width="100" height="35" as="geometry" />
        </mxCell>
        <mxCell id="ZqF51eGxgcXinOxhbdrN-51" value="&lt;font face=&quot;Lucida Console&quot;&gt;status&lt;/font&gt;" style="ellipse;whiteSpace=wrap;html=1;align=center;" vertex="1" parent="1">
          <mxGeometry x="760" y="430" width="100" height="35" as="geometry" />
        </mxCell>
        <mxCell id="ZqF51eGxgcXinOxhbdrN-52" value="&lt;font face=&quot;Lucida Console&quot;&gt;supplier_info&lt;/font&gt;" style="ellipse;whiteSpace=wrap;html=1;align=center;" vertex="1" parent="1">
          <mxGeometry x="910" y="432.5" width="100" height="35" as="geometry" />
        </mxCell>
        <mxCell id="ZqF51eGxgcXinOxhbdrN-53" value="" style="endArrow=none;html=1;rounded=0;entryX=0;entryY=0.5;entryDx=0;entryDy=0;" edge="1" parent="1" target="ZqF51eGxgcXinOxhbdrN-54">
          <mxGeometry relative="1" as="geometry">
            <mxPoint x="800" y="289.5" as="sourcePoint" />
            <mxPoint x="880" y="290" as="targetPoint" />
          </mxGeometry>
        </mxCell>
        <mxCell id="ZqF51eGxgcXinOxhbdrN-54" value="&lt;font face=&quot;Lucida Console&quot;&gt;department_id&lt;/font&gt;" style="ellipse;whiteSpace=wrap;html=1;align=center;" vertex="1" parent="1">
          <mxGeometry x="870" y="272.5" width="100" height="35" as="geometry" />
        </mxCell>
        <mxCell id="ZqF51eGxgcXinOxhbdrN-55" value="&lt;font face=&quot;Lucida Console&quot;&gt;purchase_date&lt;/font&gt;" style="ellipse;whiteSpace=wrap;html=1;align=center;" vertex="1" parent="1">
          <mxGeometry x="480" y="160" width="100" height="35" as="geometry" />
        </mxCell>
        <mxCell id="ZqF51eGxgcXinOxhbdrN-56" value="&lt;font face=&quot;Lucida Console&quot;&gt;last_updated&lt;/font&gt;" style="ellipse;whiteSpace=wrap;html=1;align=center;" vertex="1" parent="1">
          <mxGeometry x="610" y="160" width="130" height="35" as="geometry" />
        </mxCell>
        <mxCell id="ZqF51eGxgcXinOxhbdrN-57" value="expiry_date" style="ellipse;whiteSpace=wrap;html=1;align=center;" vertex="1" parent="1">
          <mxGeometry x="750" y="145" width="130" height="35" as="geometry" />
        </mxCell>
        <mxCell id="ZqF51eGxgcXinOxhbdrN-58" value="notes" style="ellipse;whiteSpace=wrap;html=1;align=center;" vertex="1" parent="1">
          <mxGeometry x="410" y="280" width="100" height="35" as="geometry" />
        </mxCell>
        <mxCell id="ZqF51eGxgcXinOxhbdrN-59" value="" style="endArrow=none;html=1;rounded=0;entryX=1;entryY=0.5;entryDx=0;entryDy=0;exitX=0;exitY=0.5;exitDx=0;exitDy=0;" edge="1" parent="1" source="ZqF51eGxgcXinOxhbdrN-42" target="ZqF51eGxgcXinOxhbdrN-58">
          <mxGeometry relative="1" as="geometry">
            <mxPoint x="670" y="196" as="sourcePoint" />
            <mxPoint x="510" y="196" as="targetPoint" />
          </mxGeometry>
        </mxCell>
        <mxCell id="ZqF51eGxgcXinOxhbdrN-60" value="" style="endArrow=none;html=1;rounded=0;entryX=0.615;entryY=0.986;entryDx=0;entryDy=0;exitX=0;exitY=0;exitDx=0;exitDy=0;entryPerimeter=0;" edge="1" parent="1" source="ZqF51eGxgcXinOxhbdrN-42" target="ZqF51eGxgcXinOxhbdrN-55">
          <mxGeometry relative="1" as="geometry">
            <mxPoint x="654" y="338" as="sourcePoint" />
            <mxPoint x="650" y="220" as="targetPoint" />
          </mxGeometry>
        </mxCell>
        <mxCell id="ZqF51eGxgcXinOxhbdrN-61" value="" style="endArrow=none;html=1;rounded=0;entryX=0.5;entryY=1;entryDx=0;entryDy=0;exitX=0.905;exitY=0;exitDx=0;exitDy=0;exitPerimeter=0;" edge="1" parent="1" source="ZqF51eGxgcXinOxhbdrN-42" target="ZqF51eGxgcXinOxhbdrN-57">
          <mxGeometry relative="1" as="geometry">
            <mxPoint x="844" y="328" as="sourcePoint" />
            <mxPoint x="840" y="210" as="targetPoint" />
          </mxGeometry>
        </mxCell>
        <mxCell id="ZqF51eGxgcXinOxhbdrN-62" value="" style="endArrow=none;html=1;rounded=0;exitX=0.36;exitY=-0.025;exitDx=0;exitDy=0;exitPerimeter=0;entryX=0.5;entryY=1;entryDx=0;entryDy=0;" edge="1" parent="1" source="ZqF51eGxgcXinOxhbdrN-42" target="ZqF51eGxgcXinOxhbdrN-56">
          <mxGeometry relative="1" as="geometry">
            <mxPoint x="1004" y="328" as="sourcePoint" />
            <mxPoint x="990" y="240" as="targetPoint" />
          </mxGeometry>
        </mxCell>
        <mxCell id="ZqF51eGxgcXinOxhbdrN-63" value="&lt;font face=&quot;Lucida Console&quot;&gt;purchase_date&lt;/font&gt;" style="ellipse;whiteSpace=wrap;html=1;align=center;" vertex="1" parent="1">
          <mxGeometry x="40" y="110" width="100" height="35" as="geometry" />
        </mxCell>
        <mxCell id="ZqF51eGxgcXinOxhbdrN-64" value="&lt;font face=&quot;Lucida Console&quot;&gt;last_maintenance&lt;/font&gt;" style="ellipse;whiteSpace=wrap;html=1;align=center;" vertex="1" parent="1">
          <mxGeometry x="35" y="400" width="130" height="35" as="geometry" />
        </mxCell>
        <mxCell id="ZqF51eGxgcXinOxhbdrN-65" value="notes" style="ellipse;whiteSpace=wrap;html=1;align=center;" vertex="1" parent="1">
          <mxGeometry x="-110" y="313.75" width="100" height="35" as="geometry" />
        </mxCell>
        <mxCell id="ZqF51eGxgcXinOxhbdrN-66" value="next_maintenance" style="ellipse;whiteSpace=wrap;html=1;align=center;" vertex="1" parent="1">
          <mxGeometry x="-20" y="170" width="100" height="40" as="geometry" />
        </mxCell>
        <mxCell id="ZqF51eGxgcXinOxhbdrN-67" value="" style="endArrow=none;html=1;rounded=0;entryX=0.393;entryY=0;entryDx=0;entryDy=0;entryPerimeter=0;exitX=0.58;exitY=1.086;exitDx=0;exitDy=0;exitPerimeter=0;" edge="1" parent="1" source="ZqF51eGxgcXinOxhbdrN-63" target="ZqF51eGxgcXinOxhbdrN-4">
          <mxGeometry relative="1" as="geometry">
            <mxPoint x="-50" y="320" as="sourcePoint" />
            <mxPoint x="110" y="320" as="targetPoint" />
          </mxGeometry>
        </mxCell>
        <mxCell id="ZqF51eGxgcXinOxhbdrN-68" value="" style="endArrow=none;html=1;rounded=0;entryX=0;entryY=0;entryDx=0;entryDy=0;exitX=0.65;exitY=0.988;exitDx=0;exitDy=0;exitPerimeter=0;" edge="1" parent="1" source="ZqF51eGxgcXinOxhbdrN-66" target="ZqF51eGxgcXinOxhbdrN-4">
          <mxGeometry relative="1" as="geometry">
            <mxPoint x="-50" y="320" as="sourcePoint" />
            <mxPoint x="110" y="320" as="targetPoint" />
          </mxGeometry>
        </mxCell>
        <mxCell id="ZqF51eGxgcXinOxhbdrN-69" value="" style="endArrow=none;html=1;rounded=0;entryX=-0.013;entryY=0.857;entryDx=0;entryDy=0;entryPerimeter=0;exitX=1;exitY=0;exitDx=0;exitDy=0;" edge="1" parent="1" source="ZqF51eGxgcXinOxhbdrN-65" target="ZqF51eGxgcXinOxhbdrN-4">
          <mxGeometry relative="1" as="geometry">
            <mxPoint x="-50" y="320" as="sourcePoint" />
            <mxPoint x="110" y="320" as="targetPoint" />
          </mxGeometry>
        </mxCell>
        <mxCell id="ZqF51eGxgcXinOxhbdrN-70" value="" style="endArrow=none;html=1;rounded=0;entryX=0.25;entryY=1;entryDx=0;entryDy=0;exitX=0.5;exitY=0;exitDx=0;exitDy=0;" edge="1" parent="1" source="ZqF51eGxgcXinOxhbdrN-64" target="ZqF51eGxgcXinOxhbdrN-4">
          <mxGeometry relative="1" as="geometry">
            <mxPoint x="-50" y="320" as="sourcePoint" />
            <mxPoint x="110" y="320" as="targetPoint" />
          </mxGeometry>
        </mxCell>
        <mxCell id="ZqF51eGxgcXinOxhbdrN-71" value="arrival_time" style="ellipse;whiteSpace=wrap;html=1;align=center;" vertex="1" parent="1">
          <mxGeometry x="430" y="767.5" width="100" height="40" as="geometry" />
        </mxCell>
        <mxCell id="ZqF51eGxgcXinOxhbdrN-72" value="Emergency_care" style="whiteSpace=wrap;html=1;align=center;fontFamily=Lucida Console;fontSize=20;" vertex="1" parent="1">
          <mxGeometry x="370" y="880" width="170" height="70" as="geometry" />
        </mxCell>
        <mxCell id="ZqF51eGxgcXinOxhbdrN-73" value="" style="line;strokeWidth=1;rotatable=0;dashed=0;labelPosition=right;align=left;verticalAlign=middle;spacingTop=0;spacingLeft=6;points=[];portConstraint=eastwest;" vertex="1" parent="1">
          <mxGeometry x="540" y="917.5" width="60" height="10" as="geometry" />
        </mxCell>
        <mxCell id="ZqF51eGxgcXinOxhbdrN-74" value="notes" style="ellipse;whiteSpace=wrap;html=1;align=center;" vertex="1" parent="1">
          <mxGeometry x="470" y="998.75" width="100" height="35" as="geometry" />
        </mxCell>
        <mxCell id="ZqF51eGxgcXinOxhbdrN-75" value="" style="line;strokeWidth=1;rotatable=0;dashed=0;labelPosition=right;align=left;verticalAlign=middle;spacingTop=0;spacingLeft=6;points=[];portConstraint=eastwest;direction=south;" vertex="1" parent="1">
          <mxGeometry x="515" y="950" width="10" height="50" as="geometry" />
        </mxCell>
        <mxCell id="ZqF51eGxgcXinOxhbdrN-76" value="treatment_given" style="ellipse;whiteSpace=wrap;html=1;align=center;" vertex="1" parent="1">
          <mxGeometry x="210" y="905" width="100" height="35" as="geometry" />
        </mxCell>
        <mxCell id="ZqF51eGxgcXinOxhbdrN-77" value="" style="line;strokeWidth=1;rotatable=0;dashed=0;labelPosition=right;align=left;verticalAlign=middle;spacingTop=0;spacingLeft=6;points=[];portConstraint=eastwest;" vertex="1" parent="1">
          <mxGeometry x="310" y="917.5" width="60" height="10" as="geometry" />
        </mxCell>
        <mxCell id="ZqF51eGxgcXinOxhbdrN-78" value="" style="endArrow=none;html=1;rounded=0;" edge="1" parent="1">
          <mxGeometry width="50" height="50" relative="1" as="geometry">
            <mxPoint x="520" y="882.5" as="sourcePoint" />
            <mxPoint x="570" y="832.5" as="targetPoint" />
          </mxGeometry>
        </mxCell>
        <mxCell id="ZqF51eGxgcXinOxhbdrN-79" value="" style="endArrow=none;html=1;rounded=0;" edge="1" parent="1">
          <mxGeometry width="50" height="50" relative="1" as="geometry">
            <mxPoint x="320" y="1002.5" as="sourcePoint" />
            <mxPoint x="370" y="952.5" as="targetPoint" />
          </mxGeometry>
        </mxCell>
        <mxCell id="ZqF51eGxgcXinOxhbdrN-80" value="outcome" style="ellipse;whiteSpace=wrap;html=1;align=center;" vertex="1" parent="1">
          <mxGeometry x="260" y="1002.5" width="100" height="35" as="geometry" />
        </mxCell>
        <mxCell id="ZqF51eGxgcXinOxhbdrN-81" value="patient_id" style="ellipse;whiteSpace=wrap;html=1;align=center;" vertex="1" parent="1">
          <mxGeometry x="530" y="795" width="100" height="35" as="geometry" />
        </mxCell>
        <mxCell id="ZqF51eGxgcXinOxhbdrN-84" value="emergency id" style="ellipse;whiteSpace=wrap;html=1;align=center;fontStyle=4;" vertex="1" parent="1">
          <mxGeometry x="610" y="905" width="100" height="35" as="geometry" />
        </mxCell>
        <mxCell id="ZqF51eGxgcXinOxhbdrN-85" value="" style="endArrow=none;html=1;rounded=0;entryX=0.5;entryY=1;entryDx=0;entryDy=0;exitX=0.75;exitY=0;exitDx=0;exitDy=0;" edge="1" parent="1" source="ZqF51eGxgcXinOxhbdrN-72" target="ZqF51eGxgcXinOxhbdrN-71">
          <mxGeometry relative="1" as="geometry">
            <mxPoint x="330" y="837.5" as="sourcePoint" />
            <mxPoint x="490" y="837.5" as="targetPoint" />
          </mxGeometry>
        </mxCell>
        <mxCell id="ZqF51eGxgcXinOxhbdrN-86" value="&lt;font face=&quot;Lucida Console&quot;&gt;emergency_type&lt;/font&gt;" style="ellipse;whiteSpace=wrap;html=1;align=center;" vertex="1" parent="1">
          <mxGeometry x="310" y="760" width="110" height="35" as="geometry" />
        </mxCell>
        <mxCell id="ZqF51eGxgcXinOxhbdrN-87" value="&lt;font face=&quot;Lucida Console&quot;&gt;resources_used&lt;/font&gt;" style="ellipse;whiteSpace=wrap;html=1;align=center;" vertex="1" parent="1">
          <mxGeometry x="350" y="1030" width="130" height="35" as="geometry" />
        </mxCell>
        <mxCell id="ZqF51eGxgcXinOxhbdrN-88" value="&lt;div&gt;assigned_staff&lt;/div&gt;&lt;div&gt;_id&lt;/div&gt;" style="ellipse;whiteSpace=wrap;html=1;align=center;" vertex="1" parent="1">
          <mxGeometry x="170" y="963.75" width="100" height="35" as="geometry" />
        </mxCell>
        <mxCell id="ZqF51eGxgcXinOxhbdrN-89" value="&lt;div&gt;condition_on_&lt;/div&gt;&lt;div&gt;arrival&lt;/div&gt;" style="ellipse;whiteSpace=wrap;html=1;align=center;" vertex="1" parent="1">
          <mxGeometry x="240" y="820" width="120" height="40" as="geometry" />
        </mxCell>
        <mxCell id="ZqF51eGxgcXinOxhbdrN-90" value="" style="endArrow=none;html=1;rounded=0;entryX=0.393;entryY=0;entryDx=0;entryDy=0;entryPerimeter=0;exitX=0.58;exitY=1.086;exitDx=0;exitDy=0;exitPerimeter=0;" edge="1" parent="1" source="ZqF51eGxgcXinOxhbdrN-86" target="ZqF51eGxgcXinOxhbdrN-72">
          <mxGeometry relative="1" as="geometry">
            <mxPoint x="230" y="970" as="sourcePoint" />
            <mxPoint x="390" y="970" as="targetPoint" />
          </mxGeometry>
        </mxCell>
        <mxCell id="ZqF51eGxgcXinOxhbdrN-91" value="" style="endArrow=none;html=1;rounded=0;entryX=0;entryY=0;entryDx=0;entryDy=0;exitX=0.65;exitY=0.988;exitDx=0;exitDy=0;exitPerimeter=0;" edge="1" parent="1" source="ZqF51eGxgcXinOxhbdrN-89" target="ZqF51eGxgcXinOxhbdrN-72">
          <mxGeometry relative="1" as="geometry">
            <mxPoint x="230" y="970" as="sourcePoint" />
            <mxPoint x="390" y="970" as="targetPoint" />
          </mxGeometry>
        </mxCell>
        <mxCell id="ZqF51eGxgcXinOxhbdrN-92" value="" style="endArrow=none;html=1;rounded=0;entryX=-0.013;entryY=0.857;entryDx=0;entryDy=0;entryPerimeter=0;exitX=1;exitY=0;exitDx=0;exitDy=0;" edge="1" parent="1" source="ZqF51eGxgcXinOxhbdrN-88" target="ZqF51eGxgcXinOxhbdrN-72">
          <mxGeometry relative="1" as="geometry">
            <mxPoint x="230" y="970" as="sourcePoint" />
            <mxPoint x="390" y="970" as="targetPoint" />
          </mxGeometry>
        </mxCell>
        <mxCell id="ZqF51eGxgcXinOxhbdrN-93" value="" style="endArrow=none;html=1;rounded=0;entryX=0.25;entryY=1;entryDx=0;entryDy=0;exitX=0.5;exitY=0;exitDx=0;exitDy=0;" edge="1" parent="1" source="ZqF51eGxgcXinOxhbdrN-87" target="ZqF51eGxgcXinOxhbdrN-72">
          <mxGeometry relative="1" as="geometry">
            <mxPoint x="230" y="970" as="sourcePoint" />
            <mxPoint x="390" y="970" as="targetPoint" />
          </mxGeometry>
        </mxCell>
      </root>
    </mxGraphModel>
  </diagram>
</mxfile>
